<svg id="svg" baseProfile="full" xmlns="http://www.w3.org/2000/svg" version="1.1" style = "background:white" viewBox="0 0 400 148.74412441680835">
<g id="outerG" transform = "translate(109.59444429888913 17.68288694624085)scale(0.6438901697757283)">
<g>
<g>
<g>
<g>
<g>

</g>
<g>
<circle visibility="inherit" stroke="black" stroke-width="1.5" fill="grey" r="5.51675" id="m10" transform="translate(131.7716525151179 129.96632551535575)scale(1)"></circle><circle visibility="inherit" stroke="black" stroke-width="1.5" fill="green" r="5.516771582043389" id="m11" transform="translate(131.7716525151179 176.08337671328817)scale(1)"></circle><circle visibility="inherit" stroke="black" stroke-width="1.5" fill="green" r="5.516771582043389" id="m3" transform="translate(-133.62877511570593 148.27424497685882)scale(1)"></circle><circle visibility="inherit" stroke="black" stroke-width="1.5" fill="green" r="5.516771582043389" id="m4" transform="translate(-83.62877511570596 148.27424497685882)scale(1)"></circle><circle visibility="inherit" stroke="black" stroke-width="1.5" fill="green" r="5.516771582043389" id="m6" transform="translate(-33.741218976692 149.09820307224808)scale(1)"></circle><circle visibility="inherit" stroke="black" stroke-width="1.5" fill="grey" r="5.516771582043389" id="m8" transform="translate(97.8428062210735 75.02344783554729)scale(1)"></circle>
</g>
<g>
<circle visibility="inherit" stroke="black" stroke-width="1.5" fill="grey" r="5.516771582043389" id="0" transform="translate(0 0)scale(1)"></circle><circle visibility="inherit" stroke="black" stroke-width="1.5" fill="grey" r="5.516771582043389" id="1" transform="translate(-75 50)scale(1)"></circle><circle visibility="inherit" stroke="black" stroke-width="1.5" fill="grey" r="5.516771582043389" id="2" transform="translate(-108.62877511570596 98.27424497685881)scale(1)"></circle><circle visibility="inherit" stroke="black" stroke-width="1.5" fill="grey" r="5.516771582043389" id="5" transform="translate(-33.21917808219178 95.96595770524685)scale(1)"></circle><circle visibility="inherit" stroke="black" stroke-width="1.5" fill="grey" r="5.516771582043389" id="7" transform="translate(-0.023447835547290907 43.52841866322053)scale(1)"></circle><circle visibility="inherit" stroke="black" stroke-width="1.5" fill="grey" r="5.516771582043389" id="9" transform="translate(63.78259234958223 131.21468390922686)scale(1)"></circle>
</g>

</g>
<g>
<g>

</g>
<g>

</g>
<g>
<g>
<g>
<path visibility="inherit" stroke-width="0" fill="black" d="M -130.55179333877155 129.9939421896812 L -120.85072195212445 134.84447788300474 L -131.39270713820613 143.80210902185925 L -130.55179333877155 129.9939421896812 " id="head"></path>
</g>
<line visibility="inherit" stroke="black" stroke-width="2" stroke-linecap="round" x1="-111.75927028420567" y1="104.53523531385822" x2="-128.54698239182707" y2="138.1106595291011" id="shaft"></line>
</g>
<g>
<g>
<path visibility="inherit" stroke-width="0" fill="black" d="M -96.40682827928744 134.84447788300474 L -86.70575689264034 129.9939421896812 L -85.86484309320575 143.80210902185925 L -96.40682827928744 134.84447788300474 " id="head"></path>
</g>
<line visibility="inherit" stroke="black" stroke-width="2" stroke-linecap="round" x1="-105.49827994720626" y1="104.53523531385822" x2="-88.71056783958483" y2="138.1106595291011" id="shaft"></line>
</g>
<g>
<g>
<path visibility="inherit" stroke-width="0" fill="black" d="M -102.94614316037112 80.62927456297916 L -94.046537805839 86.82891222131147 L -105.77077919187843 94.1715800747025 L -102.94614316037112 80.62927456297916 " id="head"></path>
</g>
<line visibility="inherit" stroke="black" stroke-width="2" stroke-linecap="round" x1="-79.00119429335854" y1="55.743730863018826" x2="-102.13355983749175" y2="88.95033673342391" id="shaft"></line>
</g>
<g>
<g>
<path visibility="inherit" stroke-width="0" fill="black" d="M -38.98986132762684 131.31930995938941 L -28.144257277161117 131.4258714043423 L -33.692094787167264 144.09844439667148 L -38.98986132762684 131.31930995938941 " id="head"></path>
</g>
<line visibility="inherit" stroke="black" stroke-width="2" stroke-linecap="round" x1="-33.28795194752641" y1="102.9656198510541" x2="-33.629577044780625" y2="137.73551753926867" id="shaft"></line>
</g>
<g>
<g>
<path visibility="inherit" stroke-width="0" fill="black" d="M -49.155309714885924 86.49616386208817 L -41.12926803935594 79.20088199065339 L -36.58225944287602 92.26600044043713 L -49.155309714885924 86.49616386208817 " id="head"></path>
</g>
<line visibility="inherit" stroke="black" stroke-width="2" stroke-linecap="round" x1="-70.29168609504207" y1="55.17994017073361" x2="-40.86227415999848" y2="87.55726168340395" id="shaft"></line>
</g>
<g>
<g>
<path visibility="inherit" stroke-width="0" fill="black" d="M -63.258861656063 35.65486294122592 L -57.24251258269431 44.67938655127896 L -70.83974852831078 47.22649901887385 L -63.258861656063 35.65486294122592 " id="head"></path>
</g>
<line visibility="inherit" stroke="black" stroke-width="2" stroke-linecap="round" x1="-5.824352060364906" y1="3.882901373576604" x2="-65.54521782384472" y2="43.696811882563146" id="shaft"></line>
</g>
<g>
<g>
<path visibility="inherit" stroke-width="0" fill="black" d="M -5.436961946727221 25.79903198983172 L 5.409164017197048 25.80487456775524 L -0.020754442028137164 38.52841938865745 L -5.436961946727221 25.79903198983172 " id="head"></path>
</g>
<line visibility="inherit" stroke="black" stroke-width="2" stroke-linecap="round" x1="-0.00377075092681524" y1="6.9999989843883155" x2="-0.017326703396611798" y2="32.16518633372546" id="shaft"></line>
</g>
<g>
<g>
<path visibility="inherit" stroke-width="0" fill="black" d="M 68.33360928252785 113.24455503594042 L 77.60883409374895 118.86671540917219 L 66.37437469483035 126.93886068148929 L 68.33360928252785 113.24455503594042 " id="head"></path>
</g>
<line visibility="inherit" stroke="black" stroke-width="2" stroke-linecap="round" x1="94.21431093772614" y1="81.00960035437988" x2="69.67279819148438" y2="121.4972479520228" id="shaft"></line>
</g>
<g>
<g>
<path visibility="inherit" stroke-width="0" fill="black" d="M 126.34858874633763 158.35690875697426 L 137.19471628389817 158.35690875697426 L 131.7716525151179 171.08337671328817 L 126.34858874633763 158.35690875697426 " id="head"></path>
</g>
<line visibility="inherit" stroke="black" stroke-width="2" stroke-linecap="round" x1="131.7716525151179" y1="136.96632551535575" x2="131.7716525151179" y2="164.72014273513122" id="shaft"></line>
</g>
<g>
<g>
<path visibility="inherit" stroke-width="0" fill="black" d="M 117.84362923484879 117.73327788401043 L 127.07197793560876 112.03450057495449 L 129.14455022016475 125.71211189450266 L 117.84362923484879 117.73327788401043 " id="head"></path>
</g>
<line visibility="inherit" stroke="black" stroke-width="2" stroke-linecap="round" x1="101.5207494340079" y1="80.97934690474162" x2="125.80117690269677" y2="120.29800056199257" id="shaft"></line>
</g>
<g>
<g>
<path visibility="inherit" stroke-width="0" fill="black" d="M 80.47584893462717 68.54069522132318 L 87.075563965645 59.93359094227636 L 93.87498256731315 71.98101863297578 L 80.47584893462717 68.54069522132318 " id="head"></path>
</g>
<line visibility="inherit" stroke="black" stroke-width="2" stroke-linecap="round" x1="5.554953115264478" y1="4.259400883600117" x2="88.82534450872463" y2="68.10908085738777" id="shaft"></line>
</g>

</g>

</g>

</g>

</g>

</g>
<g>

</g>
<g transform="translate(0.8983749346133494 77.5485832114118)">
<g>
<path visibility="inherit" stroke-width="0" fill="rgb(232, 17, 17)" d="M -57.4341287732977 -28.157111548177248 L -58.91789588701329 -17.149195617293273 L -69.28503335041658 -24.150548744447306 L -57.4341287732977 -28.157111548177248 " id="head"></path>
</g>
<line visibility="inherit" stroke="rgb(232, 17, 17)" stroke-width="2" stroke-linecap="round" x1="87.40546109339911" y1="-3.030092870026479" x2="-63.73052284028604" y2="-23.401851163591285" id="shaft"></line>
</g>
<g transform="translate(-82.42846889832082 83.62877749989175)">
<g>
<path visibility="inherit" stroke-width="0" fill="rgb(232, 17, 17)" d="M -8.182868040021964 8.152508534996374 L -7.98364885027543 19.258186799001223 L -19.290939722305694 13.906396637614975 L -8.182868040021964 8.152508534996374 " id="head"></path>
</g>
<line visibility="inherit" stroke="rgb(232, 17, 17)" stroke-width="2" stroke-linecap="round" x1="40" y1="12.842806221073516" x2="-13.687099083727196" y2="13.805872152306886" id="shaft"></line>
</g>
<g transform="translate(-18.144094286311386 117.92815858482294)">
<g>
<path visibility="inherit" stroke-width="0" fill="rgb(232, 17, 17)" d="M -63.744104544115814 -16.35156343341321 L -65.58042808581122 -5.396943684678513 L -75.71750164031982 -12.727443295666284 L -63.744104544115814 -16.35156343341321 " id="head"></path>
</g>
<line visibility="inherit" stroke="rgb(232, 17, 17)" stroke-width="2" stroke-linecap="round" x1="73.56030786139334" y1="12.296004539880983" x2="-70.18988397764167" y2="-11.800848427356073" id="shaft"></line>
</g>
<g transform="translate(99.20724728728969 130.22416312470392)">
<g>
<path visibility="inherit" stroke-width="0" fill="rgb(232, 17, 17)" d="M -17.131838071977675 -4.853541334441317 L -16.97004852649976 6.252745269645898 L -28.259238503937027 0.8628775115706162 L -17.131838071977675 -4.853541334441317 " id="head"></path>
</g>
<line visibility="inherit" stroke="rgb(232, 17, 17)" stroke-width="2" stroke-linecap="round" x1="21.956360768049194" y1="0.1313675774468095" x2="-22.655090901587872" y2="0.7812397395864531" id="shaft"></line>
</g>
<g transform="translate(196.86238715046449 18.358818144357897)">
<text visibility="inherit" stroke-width="0" fill="black" font-family="Verdana" font-size="10" text-anchor="middle" id="text">Objects</text>
</g>
<g transform="translate(297.42480122161845 45.62340622818514)">
<text visibility="inherit" stroke-width="0" fill="black" font-family="Verdana" font-size="10" text-anchor="middle" id="text">Primitive data (numbers, strings,...) or functions</text>
</g>
<g transform="translate(271.92381396620334 71.69523597575702)">
<text visibility="inherit" stroke-width="0" fill="black" font-family="Verdana" font-size="10" text-anchor="middle" id="text">Object-own-property edge</text>
</g>
<g transform="translate(277.64800193486883 102.46642665135649)">
<text visibility="inherit" stroke-width="0" fill="black" font-family="Verdana" font-size="10" text-anchor="middle" id="text">Object-to-its-prototype edge</text>
</g>
<circle visibility="inherit" stroke="black" stroke-width="1.5" fill="grey" r="5.5" id="circle" transform="translate(159.37540885939472 13.711500603907854)scale(1)"></circle><circle visibility="inherit" stroke="black" stroke-width="1.5" fill="green" r="5.5" id="circle1" transform="translate(159.82087081285914 40.960697878328624)scale(1)"></circle><g transform="translate(277.64800193486883 102.46642665135649)">

</g>
<g transform="translate(172.02045070534885 67.19304214609733)">
<g>
<path visibility="inherit" stroke-width="0" id="head" fill="black" d="M 11.819699288148923 6.873059774933575 L 11.849318058929233 -4.126900349013123 L 24.834461547294268 1.408083714791502 L 11.819699288148923 6.873059774933575 "></path>
</g>
<line visibility="inherit" stroke="black" stroke-width="2" stroke-linecap="round" x1="-19.44055876664413" y1="1.2888676755335666" x2="18.334485110416672" y2="1.3905817138758636" id="shaft"></line>
</g>
<g transform="translate(173.20427482118066 99.43974286467903)">
<g>
<path visibility="inherit" stroke-width="0" id="head" fill="red" d="M 11.27565257650545 4.684612162068181 L 11.343326972920586 -6.3151796621469405 L 24.309243748785434 -0.7353049179124014 L 11.27565257650545 4.684612162068181 "></path>
</g>
<line visibility="inherit" stroke="red" stroke-width="2" stroke-linecap="round" x1="-21.478153979768024" y1="-1.0170042949749956" x2="17.809366761749224" y2="-0.7752943339758908" id="shaft"></line>
</g>

</g>
</svg>