<svg id="svg" baseProfile="full" xmlns="http://www.w3.org/2000/svg" version="1.1" style = "background:white" viewBox="0 0 400 351.11616296184354">
<g id="outerG" transform = "translate(192.81598178995216 68.04795459726294)scale(1.724143323740046)">
<g>
<g>
<g>
<g>
<g>

</g>
<g>
<circle visibility="inherit" stroke="transparent" stroke-width="1" fill="transparent" r="5.348808362071676" id="m11" transform="translate(103.21757591935926 137.56310029854382)scale(1)"></circle><circle visibility="inherit" stroke="transparent" stroke-width="1" fill="transparent" r="5.348808362071676" id="m9" transform="translate(52.5678497328794 137.69988475885532)scale(1)"></circle><circle visibility="inherit" stroke="transparent" stroke-width="1" fill="transparent" r="5.348808362071676" id="m6" transform="translate(-19.505346879026938 99.40224586572816)scale(1)"></circle><circle visibility="inherit" stroke="transparent" stroke-width="1" fill="transparent" r="5.348808362071676" id="m4" transform="translate(-44.5082041733247 97.62448271414343)scale(1)"></circle><circle visibility="inherit" stroke="transparent" stroke-width="1" fill="transparent" r="5.348808362071676" id="m3" transform="translate(-94.88414402294873 98.37636241339158)scale(1)"></circle><circle visibility="inherit" stroke="transparent" stroke-width="1" fill="transparent" r="5.348808362071676" id="m0" transform="translate(0.9301556321911345 -0.9301556321911344)scale(1)"></circle>
</g>
<g>
<circle visibility="inherit" stroke="black" stroke-width="1" fill="grey" r="5.348808362071676" id="1" transform="translate(-44.88414402294876 -1.6236375866079698)scale(1)"></circle><circle visibility="inherit" stroke="black" stroke-width="1" fill="grey" r="5.348808362071676" id="2" transform="translate(-69.88414402294873 48.37636241339184)scale(1)"></circle><circle visibility="inherit" stroke="black" stroke-width="1" fill="grey" r="5.348808362071676" id="5" transform="translate(-19.505346879026938 49.402245865728425)scale(1)"></circle><circle visibility="inherit" stroke="black" stroke-width="1" fill="grey" r="5.348808362071676" id="7" transform="translate(78.59373318521601 35.68209655302808)scale(1)"></circle><circle visibility="inherit" stroke="black" stroke-width="1" fill="grey" r="5.348808362071676" id="8" transform="translate(52.5678497328794 88.07582460848002)scale(1)"></circle><circle visibility="inherit" stroke="black" stroke-width="1" fill="grey" r="5.348808362071676" id="10" transform="translate(103.21757591935926 87.56310029854443)scale(1)"></circle>
</g>

</g>
<g>
<g>

</g>
<g>
<g>
<g>
<path visibility="inherit" stroke-width="0" fill="black" d="M 94.26714017260431 76.86778824404077 L 100.59100991525776 73.86634334567059 L 101.28807562754986 83.4977554639815 L 94.26714017260431 76.86778824404077 " id="head"></path>
</g>
<line visibility="inherit" stroke="black" stroke-width="2" stroke-linecap="round" x1="81.5951780835862" y1="42.00596629568151" x2="99.35857533574044" y2="79.4324106294186" id="shaft"></line><text visibility="inherit" stroke="black" stroke-width="0.2" fill="black" y="4" font-style="italic" font-family="Arial" font-size="12" text-anchor="middle" id="labelText" transform="translate(95.99833215823391 56.02710334014024)scale(1)">b</text>
</g>
<g>
<g>
<path visibility="inherit" stroke-width="0" fill="black" d="M 99.71757591935926 124.06310029854382 L 106.71757591935926 124.06310029854382 L 103.21757591935926 133.06310029854382 L 99.71757591935926 124.06310029854382 " id="head"></path>
</g>
<line visibility="inherit" stroke="black" stroke-width="2" stroke-linecap="round" x1="103.21757591935926" y1="94.56310029854443" x2="103.21757591935926" y2="128.56310029854382" id="shaft"></line><text visibility="inherit" stroke="black" stroke-width="0.2" fill="black" y="4" font-style="italic" font-family="Arial" font-size="12" text-anchor="middle" id="labelText" transform="translate(96.21757591935926 107.56310029854419)scale(1)">z</text>
</g>
<g>
<g>
<path visibility="inherit" stroke-width="0" fill="transparent" d="M 64.8901539392456 33.09136000729271 L 67.87505005800274 26.759662354985828 L 74.52335612301873 33.763234762398476 L 64.8901539392456 33.09136000729271 " id="head"></path>
</g>
<line visibility="inherit" stroke="transparent" stroke-width="2" stroke-linecap="round" x1="7.261853284498012" y1="2.054740486566028" x2="70.45297906082145" y2="31.844372971768873" id="shaft"></line>
</g>
<g>
<g>
<path visibility="inherit" stroke-width="0" fill="black" d="M 49.0678497328794 124.19988475885532 L 56.0678497328794 124.19988475885532 L 52.5678497328794 133.19988475885532 L 49.0678497328794 124.19988475885532 " id="head"></path>
</g>
<line visibility="inherit" stroke="black" stroke-width="2" stroke-linecap="round" x1="52.5678497328794" y1="95.07582460848002" x2="52.5678497328794" y2="128.69988475885532" id="shaft"></line><text visibility="inherit" stroke="black" stroke-width="0.2" fill="black" y="4" font-style="italic" font-family="Arial" font-size="12" text-anchor="middle" id="labelText" transform="translate(45.5678497328794 107.92544866863014)scale(1)">y</text>
</g>
<g>
<g>
<path visibility="inherit" stroke-width="0" fill="black" d="M -23.005346879026938 85.90224586572816 L -16.005346879026938 85.90224586572816 L -19.505346879026938 94.90224586572816 L -23.005346879026938 85.90224586572816 " id="head"></path>
</g>
<line visibility="inherit" stroke="black" stroke-width="2" stroke-linecap="round" x1="-19.505346879026938" y1="56.402245865728425" x2="-19.505346879026938" y2="90.40224586572816" id="shaft"></line><text visibility="inherit" stroke="black" stroke-width="0.2" fill="black" y="4" font-style="italic" font-family="Arial" font-size="12" text-anchor="middle" id="labelText" transform="translate(-26.505346879026938 74.40224586572829)scale(1)">z</text>
</g>
<g>
<g>
<path visibility="inherit" stroke-width="0" fill="black" d="M -53.8029794409567 87.2270237589844 L -47.580450570419366 84.02075888294415 L -46.569374450779144 93.6242855830837 L -53.8029794409567 87.2270237589844 " id="head"></path>
</g>
<line visibility="inherit" stroke="black" stroke-width="2" stroke-linecap="round" x1="-66.67787914690848" y1="54.59889128392917" x2="-48.63054472823359" y2="89.624088452024" id="shaft"></line><text visibility="inherit" stroke="black" stroke-width="0.2" fill="black" y="4" font-style="italic" font-family="Arial" font-size="12" text-anchor="middle" id="labelText" transform="translate(-52.24244222008059 67.3317516726898)scale(1)">y</text>
</g>
<g>
<g>
<path visibility="inherit" stroke-width="0" fill="black" d="M -91.97725565219898 84.73634775064286 L -85.71626531519956 87.86684291914258 L -92.87168284319891 94.35144005389196 L -91.97725565219898 84.73634775064286 " id="head"></path>
</g>
<line visibility="inherit" stroke="black" stroke-width="2" stroke-linecap="round" x1="-73.01463919144845" y1="54.637352750391244" x2="-90.85922166344909" y2="90.32651769439234" id="shaft"></line><text visibility="inherit" stroke="black" stroke-width="0.2" fill="black" y="4" font-style="italic" font-family="Arial" font-size="12" text-anchor="middle" id="labelText" transform="translate(-87.39513435994813 67.745867244892)scale(1)">x</text>
</g>
<g>
<g>
<path visibility="inherit" stroke-width="0" fill="transparent" d="M -31.33271759927501 -4.918913278224232 L -31.438663072397222 2.080284929908248 L -40.38465946057788 -1.5555297824579772 L -31.33271759927501 -4.918913278224232 " id="head"></path>
</g>
<line visibility="inherit" stroke="transparent" stroke-width="2" stroke-linecap="round" x1="-6.069042575941346" y1="-1.0361011053133449" x2="-35.885174898207" y2="-1.4874219783079847" id="shaft"></line>
</g>
<g>
<g>
<path visibility="inherit" stroke-width="0" fill="black" d="M 55.439071722402964 74.42825763532045 L 61.708224114280874 77.54237521296767 L 54.569782461366906 84.04565521370137 L 55.439071722402964 74.42825763532045 " id="head"></path>
</g>
<line visibility="inherit" stroke="black" stroke-width="2" stroke-linecap="round" x1="75.47961560756877" y1="41.95124894490599" x2="56.571715189854416" y2="80.01548581892271" id="shaft"></line><text visibility="inherit" stroke="black" stroke-width="0.2" fill="black" y="4" font-style="italic" font-family="Arial" font-size="12" text-anchor="middle" id="labelText" transform="translate(60.61293323978663 56.14515660033422)scale(1)">a</text>
</g>
<g>
<g>
<path visibility="inherit" stroke-width="0" fill="black" d="M -28.65107883412629 38.873447880892996 L -22.383511520671885 35.75614135581114 L -21.509329645150988 45.37309544993631 L -28.65107883412629 38.873447880892996 " id="head"></path>
</g>
<line visibility="inherit" stroke="black" stroke-width="2" stroke-linecap="round" x1="-41.7668374978669" y1="4.643929726846438" x2="-23.513312411275038" y2="41.343945034144184" id="shaft"></line><text visibility="inherit" stroke="black" stroke-width="0.2" fill="black" y="4" font-style="italic" font-family="Arial" font-size="12" text-anchor="middle" id="labelText" transform="translate(-27.196117994729534 18.220703441861552)scale(1)">b</text>
</g>
<g>
<g>
<path visibility="inherit" stroke-width="0" fill="black" d="M -66.97725565219899 34.73634775064313 L -60.71626531519958 37.86684291914283 L -67.87168284319891 44.35144005389222 L -66.97725565219899 34.73634775064313 " id="head"></path>
</g>
<line visibility="inherit" stroke="black" stroke-width="2" stroke-linecap="round" x1="-48.014639191448474" y1="4.637352750391438" x2="-65.8592216634491" y2="40.3265176943926" id="shaft"></line><text visibility="inherit" stroke="black" stroke-width="0.2" fill="black" y="4" font-style="italic" font-family="Arial" font-size="12" text-anchor="middle" id="labelText" transform="translate(-62.39513435994815 17.74586724489223)scale(1)">a</text>
</g>

</g>
<g>

</g>

</g>

</g>

</g>

</g>
<g>

</g>
<g transform="translate(16.84428425374824 6.22743623384693)">
<g>
<path visibility="inherit" stroke-width="0" fill="red" d="M -45.42530955640338 -7.872867497333563 L -47.46259984789489 -1.1758944297309766 L -55.054348646209604 -7.14375419544994 L -45.42530955640338 -7.872867497333563 " id="head"></path>
</g>
<line visibility="inherit" stroke="red" stroke-width="2" stroke-linecap="round" x1="53.78873158393493" y1="25.96746611415891" x2="-50.74915167417937" y2="-5.834067579491105" id="shaft"></line>
</g>
<g transform="translate(-9.015863186595631 58.16603238208686)">
<g>
<path visibility="inherit" stroke-width="0" fill="red" d="M -45.73199453219135 -7.425657467622807 L -47.82188862488084 -0.7449132963989453 L -55.36646979868106 -6.772292072611641 L -45.73199453219135 -7.425657467622807 " id="head"></path>
</g>
<line visibility="inherit" stroke="red" stroke-width="2" stroke-linecap="round" x1="53.326470943281485" y1="27.229419256511484" x2="-51.071705688608574" y2="-5.428788727311259" id="shaft"></line>
</g>
<g transform="translate(-93.08649427968244 105.12348007226186)">
<text visibility="inherit" stroke-width="0" fill="black" font-family="Verdana" font-size="10" text-anchor="middle" id="text">1</text>
</g>
<g transform="translate(51.80208258949311 142.8794874101906)">
<text visibility="inherit" stroke-width="0" fill="black" font-family="Verdana" font-size="10" text-anchor="middle" id="text">4</text>
</g>
<g transform="translate(103.91772634891225 141.2676115534612)">
<text visibility="inherit" stroke-width="0" fill="black" font-family="Verdana" font-size="10" text-anchor="middle" id="text">3</text>
</g>
<g transform="translate(-45.25227802600584 103.81465754798317)">
<text visibility="inherit" stroke-width="0" fill="black" font-family="Verdana" font-size="10" text-anchor="middle" id="text">2</text>
</g>
<g transform="translate(-18.767916832691228 104.40566920483755)">
<text visibility="inherit" stroke-width="0" fill="black" font-family="Verdana" font-size="10" text-anchor="middle" id="text">3</text>
</g>
<g transform="translate(-45.27442004443215 48.04543384990334)">
<g>
<path visibility="inherit" stroke-width="0" fill="red" d="M -8.782475630075279 -4.298871821509342 L -8.853900483105587 2.7007637754606604 L -17.81771953840901 -0.8908859769204511 L -8.782475630075279 -4.298871821509342 " id="head"></path>
</g>
<line visibility="inherit" stroke="red" stroke-width="2" stroke-linecap="round" x1="17.105010756872645" y1="-0.5345315861522622" x2="-13.31795379749972" y2="-0.8449699999723961" id="shaft"></line>
</g>
<g transform="translate(101.89995421789924 72.27753242213959)">
<g>
<path visibility="inherit" stroke-width="0" fill="red" d="M -34.147230861916874 12.370980311156167 L -34.26991282881733 19.369905166803456 L -43.207189516913616 15.712708781536364 L -34.147230861916874 12.370980311156167 " id="head"></path>
</g>
<line visibility="inherit" stroke="red" stroke-width="2" stroke-linecap="round" x1="-6.326070799863416" y1="16.35918638759985" x2="-38.70788068114036" y2="15.791575760258088" id="shaft"></line>
</g>
<g transform="translate(78.51750943595826 24.130166934528734)">

</g>
<g transform="translate(-44.802504192116466 -9.933749279001608)">
<text visibility="inherit" stroke-width="0" fill="black" font-family="Verdana" font-size="10" text-anchor="middle" id="text">iii</text>
</g>
<g transform="translate(78.51750943595826 24.130166934528734)">
<text visibility="inherit" stroke-width="0" fill="black" font-family="Verdana" font-size="10" text-anchor="middle" id="text">jjj</text>
</g>

</g>
</svg>